<?xml version="1.0" encoding="utf-8"?>
<!-- Uploaded to: SVG Repo, www.svgrepo.com, Generator: SVG Repo Mixer Tools -->
<svg fill="#000000" width="800px" height="800px" viewBox="0 0 32 32" version="1.1" xmlns="http://www.w3.org/2000/svg">
<title>nails</title>
<path d="M29.723 10.691l0.77-0.771-6.823-6.823-0.77 0.77 1.849 2.994-1.593 1.593 1.291 1.291-2.045-0.537-0.687 0.687 1.313 1.313-2.080-0.546-0.674 0.674 1.334 1.335-2.114-0.555-3.551 3.551-8.824-8.824 1.867-2.976-0.77-0.77-6.823 6.823 0.77 0.771 2.994-1.849 1.475 1.475 1.31-1.31-0.544 2.075 0.676 0.676 1.332-1.332-0.554 2.11 0.663 0.663 1.354-1.353-0.563 2.144 3.657 3.657-8.473 8.473-1.345 3.332 3.326-1.352 8.473-8.473 8.474 8.474 3.332 1.345-1.352-3.326-8.474-8.474 8.824-8.824z"></path>
</svg>