<svg xmlns="http://www.w3.org/2000/svg" version="1.1" viewBox="-5.0 -10.0 110.0 135.0">
 <path d="m90.332 42.418c-0.23047 0-0.45703 0.042969-0.67578 0.074219-3.4805-4.9883-9.5-6.918-17.938-5.6875-4.168 0.61328-8.418 3.3555-12 7.6758 0.6875-5.6445 2.3945-9.5 7.5938-11.176 3.168 3.875 9.707 1.5 9.6562-3.5508-0.09375-6.1367-8.4883-7.5742-10.637-1.8945-11.406-2.3867-20.199 2.4492-25.551 15.543-3.668-4.1367-8.1758-6.707-12.863-7.25-9.1992-1.0742-14.582 1.3945-17.844 8.1992-7.5312-0.34375-7.9805 10.645-0.41797 10.949 3.957 0.09375 6.7695-4.3945 4.9258-7.8867 2.625-1.543 5.1562-1.5938 7.8867-0.16797 3.2383 1.6992 5.3242 7.4492 5.6367 15.449-1.2305 0.41797-2.125 1.5742-2.125 2.9492v7.2812c0 1.7188 1.4062 3.125 3.125 3.125h42.543c1.7188 0 3.125-1.4062 3.125-3.125v-7.2812c0-1.3008-0.80078-2.418-1.9375-2.8867 0.39453-9.5625 3.9258-17.918 12.363-16.762-1.4258 3.4688 1.3633 7.5117 5.125 7.4375 7.2695-0.26172 7.2695-10.738 0-10.988zm-18.852-16.086c4.5117 0.14453 4.5117 6.6875 0 6.8242-4.5117-0.14453-4.5117-6.6875 0-6.8242zm-24.188 9.793c4.4492-5.8242 10.25-7.75 18.699-6.207 0.019531 0.53125 0.11328 1.043 0.28125 1.5312-11.969 4.0742-8.8867 21.375-7.5625 31.051h-20.688c1.4062-10.137 3.7305-18.863 9.2695-26.375zm-37.625 17.082c-4.5117-0.14453-4.5117-6.6875 0-6.8242 4.5117 0.14453 4.5117 6.6875 0 6.8242zm13.77-7.8203c-3.4688-1.8242-6.7812-1.6875-10.105 0.34375-0.36328-0.33203-0.76953-0.60547-1.2188-0.83203 2.8633-5.6758 7.457-7.625 15.562-6.6875 4.457 0.51953 8.7695 3.1367 12.219 7.3555-1.8242 4.875-3.1562 10.562-3.9688 16.938h-5.7383c-0.20703-4.8633-1.332-14.262-6.75-17.113zm49.262 27.52c0 0.57422-0.46875 1.043-1.043 1.043h-42.543c-0.57422 0-1.043-0.46875-1.043-1.043v-7.2812c0-0.57422 0.46875-1.043 1.043-1.043h42.543c0.57422 0 1.043 0.46875 1.043 1.043zm3.1445-25.719c-3.0117 3.082-4.668 8.1133-5.0742 15.312h-9.957c-0.625-4.457-1.4258-9.1055-1.3438-14.199 3.6055-5.3555 8.168-8.793 12.562-9.4375 7.2812-1.0625 12.5 0.39453 15.562 4.3242-0.44922 0.26172-0.86328 0.57422-1.2188 0.94922-3.418-1.1445-7.543 0.019531-10.52 3.0508zm14.488 4.1445c-4.5117-0.14453-4.5117-6.6875 0-6.8242 4.5117 0.14453 4.5117 6.6875 0 6.8242z"/>
<text x="0.0" y="117.5" font-size="5.0" font-weight="bold" font-family="Arbeit Regular, Helvetica, Arial-Unicode, Arial, Sans-serif" fill="#000000">Created by Yoyon Pujiyono</text><text x="0.0" y="122.5" font-size="5.0" font-weight="bold" font-family="Arbeit Regular, Helvetica, Arial-Unicode, Arial, Sans-serif" fill="#000000">from Noun Project</text></svg>