<?xml version="1.0" encoding="utf-8"?>
<svg fill="#000000" height="800px" width="800px" version="1.1" xmlns="http://www.w3.org/2000/svg" viewBox="0 0 512 512">
<path d="M381.86,15.768C356.44,5.599,323.142,0,288.099,0c-35.044,0-68.343,5.599-93.763,15.768c-43.405,17.363-49.884,42.322-49.884,55.656v114.82l-30.52-15.259c-7.216-3.609-15.785-3.221-22.643,1.018c-6.862,4.24-11.037,11.733-11.037,19.797v96.299c0,8.816,4.98,16.874,12.865,20.815l51.335,25.668v105.993c0,13.334,6.482,38.294,49.886,55.656C219.758,506.401,253.055,512,288.099,512c35.042,0,68.341-5.599,93.761-15.766c43.407-17.363,49.887-42.322,49.887-55.656V71.424C431.748,58.09,425.267,33.131,381.86,15.768z M288.099,46.545c58.359,0,91.412,16.984,96.715,24.879c-5.305,7.893-38.36,24.875-96.715,24.875c-58.357,0-91.412-16.983-96.715-24.875C196.687,63.53,229.739,46.545,288.099,46.545z M385.202,439.923c-3.817,7.56-37.072,25.532-97.103,25.532c-0.272,0-0.534-0.006-0.804-0.008V352.299c0-12.853-10.42-23.273-23.273-23.273c-12.853,0-23.273,10.42-23.273,23.273v108.943c-30.21-5.784-47.101-16.064-49.754-21.321V320.2c0-8.816-4.98-16.874-12.865-20.815l-51.335-25.668v-44.26l30.52,15.259c7.215,3.606,15.784,3.219,22.643-1.018c6.862-4.24,11.037-11.731,11.037-19.797v-98.212c1.094,0.469,2.197,0.932,3.34,1.39c25.42,10.167,58.719,15.766,93.763,15.766c0.268,0,0.535-0.008,0.804-0.008V256c0,12.853,10.42,23.273,23.273,23.273c12.853,0,23.273-10.42,23.273-23.273V139.267c17.084-2.669,32.873-6.772,46.412-12.187c1.143-0.458,2.248-0.925,3.342-1.39V439.923z"/>
</svg>
